<svg width="97" height="20" viewBox="0 0 97 20" fill="none" xmlns="http://www.w3.org/2000/svg">
<path fill-rule="evenodd" clip-rule="evenodd" d="M4.42306 9.28934V16.3575C4.42306 16.7124 4.1304 17 3.76917 17H1.1539C0.79266 17 0.5 16.7124 0.5 16.3575V3.50635C0.5 3.24017 0.666966 3.00161 0.919925 2.90646C0.919925 2.90646 6.60805 0.764126 8.29795 0.127689C8.74989 -0.0425628 9.25 -0.0425628 9.70194 0.127689C11.3918 0.764126 17.0801 2.90646 17.0801 2.90646C17.417 3.03337 17.5857 3.40518 17.4566 3.73628C17.3274 4.06753 16.9491 4.23331 16.6122 4.10639C16.6122 4.10639 10.9239 1.96406 9.23399 1.32762C9.08335 1.27087 8.9167 1.27087 8.76605 1.32762L1.80764 3.94832V15.7149H3.11543V6.07662C3.11543 5.72177 3.40809 5.43401 3.76917 5.43401H14.2307C14.5918 5.43401 14.8846 5.72177 14.8846 6.07662V15.7149H16.1923V6.07662C16.1923 5.72193 16.4852 5.43401 16.8461 5.43401C17.2069 5.43401 17.4999 5.72193 17.4999 6.07662V16.3575C17.4999 16.7124 17.2072 17 16.8461 17H14.2307C13.8696 17 13.5768 16.7124 13.5768 16.3575V9.28934H4.42306ZM13.5768 8.00428V6.71922H4.42306V8.00428H13.5768Z" fill="black"/>
<path fill-rule="evenodd" clip-rule="evenodd" d="M48.1 15.745C47.99 15.875 47.85 15.9575 47.68 15.9925C47.51 16.0275 47.34 16.0275 47.17 15.9925C47 15.9575 46.86 15.91 46.75 15.85C46.58 15.75 46.41 15.6025 46.24 15.4075C46.07 15.2125 45.9325 14.95 45.8275 14.62C45.7225 14.29 45.67 13.865 45.67 13.345C45.67 13.175 45.64 13.0175 45.58 12.8725C45.52 12.7275 45.435 12.6025 45.325 12.4975C45.215 12.3925 45.075 12.3125 44.905 12.2575L44.7719 12.2214C44.6331 12.1905 44.4775 12.175 44.305 12.175L41.5 12.176V15.085C41.5 15.345 41.43 15.5625 41.29 15.7375C41.15 15.9125 40.955 16 40.705 16C40.425 16 40.175 15.9125 39.955 15.7375C39.735 15.5625 39.625 15.345 39.625 15.085V6.415C39.625 6.155 39.7125 5.9375 39.8875 5.7625C40.0625 5.5875 40.28 5.5 40.54 5.5H44.86C45.38 5.5 45.8675 5.6375 46.3225 5.9125C46.7775 6.1875 47.145 6.5675 47.425 7.0525C47.705 7.5375 47.845 8.095 47.845 8.725C47.845 9.105 47.7675 9.475 47.6125 9.835C47.4575 10.195 47.2475 10.52 46.9825 10.81L46.8196 10.9762C46.7084 11.0818 46.592 11.177 46.4704 11.2618L46.389 11.315L46.4182 11.3332C46.5634 11.4364 46.6915 11.5495 46.8025 11.6725C46.9875 11.8775 47.1325 12.0975 47.2375 12.3325C47.3425 12.5675 47.405 12.82 47.425 13.09C47.465 13.34 47.4925 13.56 47.5075 13.75C47.5225 13.94 47.5525 14.1 47.5975 14.23C47.6425 14.36 47.73 14.46 47.86 14.53C48.08 14.66 48.2175 14.8475 48.2725 15.0925C48.3275 15.3375 48.27 15.555 48.1 15.745ZM44.785 7.225H41.5V10.63H44.785C44.965 10.63 45.14 10.5475 45.31 10.3825C45.48 10.2175 45.62 9.9925 45.73 9.7075C45.84 9.4225 45.895 9.11 45.895 8.77C45.895 8.33 45.7775 7.9625 45.5425 7.6675C45.3075 7.3725 45.055 7.225 44.785 7.225ZM54.43 16C55.4 16 56.2175 15.765 56.8825 15.295C57.5475 14.825 58.055 14.1925 58.405 13.3975C58.755 12.6025 58.93 11.72 58.93 10.75C58.93 10.03 58.8325 9.3525 58.6375 8.7175C58.4425 8.0825 58.1525 7.5225 57.7675 7.0375C57.3825 6.5525 56.91 6.175 56.35 5.905C55.79 5.635 55.15 5.5 54.43 5.5H50.845C50.585 5.5 50.3675 5.5875 50.1925 5.7625C50.0175 5.9375 49.93 6.155 49.93 6.415V15.085C49.93 15.345 50.0175 15.5625 50.1925 15.7375C50.3675 15.9125 50.585 16 50.845 16H54.43ZM54.28 7.225H51.805V14.275H54.28C54.91 14.275 55.425 14.1125 55.825 13.7875C56.225 13.4625 56.5175 13.0325 56.7025 12.4975C56.8875 11.9625 56.98 11.38 56.98 10.75C56.98 10.28 56.9275 9.8325 56.8225 9.4075C56.7175 8.9825 56.555 8.6075 56.335 8.2825C56.115 7.9575 55.835 7.7 55.495 7.51C55.155 7.32 54.75 7.225 54.28 7.225Z" fill="#ACD9B2"/>
<path fill-rule="evenodd" clip-rule="evenodd" d="M85.8601 15.72C85.6735 15.9066 85.4415 16 85.1641 16C84.8975 16 84.6735 15.9066 84.4921 15.72C84.3108 15.5333 84.2201 15.3013 84.2201 15.024V5.13597C84.2201 4.85864 84.3135 4.62664 84.5001 4.43997C84.6868 4.25331 84.9188 4.15997 85.1961 4.15997C85.4735 4.15997 85.7001 4.25331 85.8761 4.43997C86.0521 4.62664 86.1401 4.85864 86.1401 5.13597V15.024C86.1401 15.3013 86.0468 15.5333 85.8601 15.72ZM70.3241 15.76C69.7001 16.0266 69.0255 16.16 68.3001 16.16C67.5535 16.16 66.8815 16.0666 66.2841 15.88C65.6868 15.6933 65.1161 15.3653 64.5721 14.896C64.4335 14.7786 64.3268 14.6453 64.2521 14.496C64.1775 14.3466 64.1401 14.1973 64.1401 14.048C64.1401 13.8026 64.2281 13.5866 64.4041 13.4C64.5801 13.2133 64.8015 13.12 65.0681 13.12C65.2708 13.12 65.4521 13.184 65.6121 13.312C66.0175 13.6426 66.4201 13.8933 66.8201 14.064C67.2201 14.2346 67.7135 14.32 68.3001 14.32C68.6948 14.32 69.0575 14.2586 69.3881 14.136C69.7188 14.0133 69.9855 13.848 70.1881 13.64C70.3908 13.432 70.4921 13.1946 70.4921 12.928C70.4921 12.608 70.3961 12.336 70.2041 12.112C70.0121 11.888 69.7188 11.6986 69.3241 11.544C68.9295 11.3893 68.4281 11.2693 67.8201 11.184C67.2441 11.0986 66.7375 10.968 66.3001 10.792C65.8628 10.616 65.4975 10.392 65.2041 10.12C64.9108 9.84797 64.6895 9.52797 64.5401 9.15997C64.3908 8.79197 64.3161 8.37864 64.3161 7.91997C64.3161 7.22664 64.4948 6.63464 64.8521 6.14397C65.2095 5.65331 65.6921 5.27997 66.3001 5.02397C66.9081 4.76797 67.5801 4.63997 68.3161 4.63997C69.0095 4.63997 69.6521 4.74397 70.2441 4.95197C70.8361 5.15997 71.3188 5.42397 71.6921 5.74397C72.0015 5.98931 72.1561 6.27197 72.1561 6.59197C72.1561 6.82664 72.0655 7.03997 71.8841 7.23197C71.7028 7.42397 71.4895 7.51997 71.2441 7.51997C71.0841 7.51997 70.9401 7.47197 70.8121 7.37597C70.6415 7.22664 70.4121 7.08531 70.1241 6.95197C69.8361 6.81864 69.5321 6.70664 69.2121 6.61597C68.8921 6.52531 68.5935 6.47997 68.3161 6.47997C67.8575 6.47997 67.4708 6.53864 67.1561 6.65597C66.8415 6.77331 66.6041 6.93331 66.4441 7.13597C66.2841 7.33864 66.2041 7.57331 66.2041 7.83997C66.2041 8.15997 66.2975 8.42397 66.4841 8.63197C66.6708 8.83997 66.9401 9.00531 67.2921 9.12797C67.6441 9.25064 68.0655 9.35997 68.5561 9.45597C69.1961 9.57331 69.7588 9.71197 70.2441 9.87197C70.7295 10.032 71.1321 10.2373 71.4521 10.488C71.7721 10.7386 72.0121 11.0533 72.1721 11.432C72.3321 11.8106 72.4121 12.272 72.4121 12.816C72.4121 13.5093 72.2201 14.1066 71.8361 14.608C71.4521 15.1093 70.9481 15.4933 70.3241 15.76ZM78.6761 15.96C78.3295 16.0933 77.9535 16.16 77.5481 16.16C76.8121 16.16 76.1455 15.9706 75.5481 15.592C74.9508 15.2133 74.4788 14.6906 74.1321 14.024C73.7855 13.3573 73.6121 12.592 73.6121 11.728C73.6121 10.8533 73.7855 10.0826 74.1321 9.41597C74.4788 8.74931 74.9455 8.22664 75.5321 7.84797C76.1188 7.46931 76.7695 7.27997 77.4841 7.27997C77.9428 7.27997 78.3641 7.34931 78.7481 7.48797C79.1321 7.62664 79.4655 7.80264 79.7481 8.01597L79.9101 8.14429C79.9615 8.18717 80.0115 8.23173 80.0601 8.27797V8.25597C80.0601 7.97864 80.1508 7.74664 80.3321 7.55997C80.5135 7.37331 80.7428 7.27997 81.0201 7.27997C81.2975 7.27997 81.5268 7.37064 81.7081 7.55197C81.8895 7.73331 81.9801 7.96797 81.9801 8.25597V15.024C81.9801 15.3013 81.8895 15.5333 81.7081 15.72C81.5268 15.9066 81.2975 16 81.0201 16C80.7428 16 80.5135 15.9066 80.3321 15.72L80.249 15.6229C80.1483 15.4883 80.0878 15.3337 80.0677 15.1589L80.0611 15.04L79.9833 15.1235C79.8681 15.2406 79.7337 15.3568 79.5801 15.472C79.3241 15.664 79.0228 15.8266 78.6761 15.96ZM77.7881 14.4C77.3295 14.4 76.9241 14.2826 76.5721 14.048C76.2201 13.8133 75.9455 13.4933 75.7481 13.088C75.5508 12.6826 75.4521 12.2293 75.4521 11.728C75.4521 11.216 75.5508 10.7573 75.7481 10.352C75.9455 9.94664 76.2201 9.62664 76.5721 9.39197C76.9241 9.15731 77.3295 9.03997 77.7881 9.03997C78.2575 9.03997 78.6681 9.15731 79.0201 9.39197C79.3721 9.62664 79.6468 9.94664 79.8441 10.352C80.0415 10.7573 80.1401 11.216 80.1401 11.728C80.1401 12.2293 80.0415 12.6826 79.8441 13.088C79.6468 13.4933 79.3721 13.8133 79.0201 14.048C78.6681 14.2826 78.2575 14.4 77.7881 14.4ZM92.3321 16.16C92.8655 16.16 93.3828 16.072 93.8841 15.896C94.3855 15.72 94.7748 15.5146 95.0521 15.28C95.3508 15.0453 95.5001 14.784 95.5001 14.496C95.5001 14.2826 95.4228 14.096 95.2681 13.936C95.1135 13.776 94.9188 13.696 94.6841 13.696C94.5135 13.696 94.3321 13.744 94.1401 13.84C94.0228 13.904 93.8921 13.9813 93.7481 14.072C93.6041 14.1626 93.4148 14.24 93.1801 14.304C92.9455 14.368 92.6308 14.4 92.2361 14.4C91.8095 14.4 91.4068 14.296 91.0281 14.088C90.6495 13.88 90.3401 13.576 90.1001 13.176C89.963 12.9474 89.865 12.6901 89.8063 12.4041L89.8021 12.384H95.0841C95.2889 12.384 95.4733 12.3328 95.6371 12.2304L95.7561 12.144C95.9481 11.984 96.0495 11.776 96.0601 11.52C96.0601 10.944 95.9508 10.4 95.7321 9.88797C95.5135 9.37597 95.2175 8.92531 94.8441 8.53597C94.4708 8.14664 94.0415 7.83997 93.5561 7.61597C93.0708 7.39197 92.5561 7.27997 92.0121 7.27997C91.3081 7.27997 90.6415 7.46131 90.0121 7.82397C89.3828 8.18664 88.8735 8.70664 88.4841 9.38397C88.0948 10.0613 87.9001 10.88 87.9001 11.84C87.9001 12.6613 88.0788 13.3973 88.4361 14.048C88.7935 14.6986 89.3055 15.2133 89.9721 15.592C90.6388 15.9706 91.4255 16.16 92.3321 16.16ZM89.8191 10.784H94.0121V10.672C93.9908 10.3626 93.8815 10.0853 93.6841 9.83997C93.4868 9.59464 93.2415 9.39997 92.9481 9.25597C92.6548 9.11197 92.3428 9.03997 92.0121 9.03997C91.6921 9.03997 91.3935 9.08264 91.1161 9.16797C90.8388 9.25331 90.5988 9.39731 90.3961 9.59997C90.1935 9.80264 90.0335 10.0746 89.9161 10.416L89.8624 10.5942L89.8191 10.784Z" fill="black"/>
<path d="M24.5449 16C24.7749 16 24.9774 15.9125 25.1524 15.7375C25.3274 15.5625 25.4149 15.345 25.4149 15.085V11.429L28.5499 6.94002C28.5899 6.88002 28.6221 6.81891 28.6465 6.75668L28.6774 6.66252C28.7024 6.56752 28.7149 6.47502 28.7149 6.38502C28.7149 6.11502 28.6224 5.89252 28.4374 5.71752C28.2524 5.54252 28.0449 5.45502 27.8149 5.45502C27.5249 5.45502 27.2749 5.60502 27.0649 5.90502L24.5919 9.52302L21.9499 5.87502C21.7699 5.63502 21.5642 5.49787 21.3327 5.46359L21.2149 5.45502C20.9949 5.45502 20.7799 5.54002 20.5699 5.71002C20.3599 5.88002 20.2549 6.10002 20.2549 6.37002C20.2549 6.47002 20.2749 6.58002 20.3149 6.70002C20.3549 6.82002 20.4249 6.94502 20.5249 7.07502L23.6449 11.222V15.085C23.6449 15.3017 23.7056 15.4888 23.8272 15.6465L23.9074 15.7375C24.0824 15.9125 24.2949 16 24.5449 16Z" fill="#ACD9B2"/>
<path fill-rule="evenodd" clip-rule="evenodd" d="M37.5874 15.835C37.4124 15.995 37.2199 16.075 37.0099 16.075C36.8299 16.075 36.6674 16.02 36.5224 15.91L36.4198 15.82C36.3232 15.7225 36.2449 15.6025 36.1849 15.46L35.4059 13.645H30.9329L30.1549 15.475C30.0849 15.665 29.9774 15.8125 29.8324 15.9175C29.6874 16.0225 29.5299 16.075 29.3599 16.075C29.0899 16.075 28.8899 16 28.7599 15.85C28.6299 15.7 28.5649 15.515 28.5649 15.295C28.5649 15.205 28.5799 15.11 28.6099 15.01L32.3449 6.03998C32.4249 5.83998 32.5474 5.68498 32.7124 5.57498C32.8774 5.46498 33.0549 5.41998 33.2449 5.43998C33.4249 5.43998 33.5924 5.49248 33.7474 5.59748C33.9024 5.70248 34.0149 5.84998 34.0849 6.03998L37.7749 14.83C37.8249 14.96 37.8499 15.08 37.8499 15.19C37.8499 15.46 37.7624 15.675 37.5874 15.835ZM31.6669 11.92H34.6659L33.1589 8.40898L31.6669 11.92Z" fill="#ACD9B2"/>
</svg>
